<svg width="121" height="64" viewBox="0 0 121 64" fill="none" xmlns="http://www.w3.org/2000/svg">
<path d="M16.6172 19.7658C17.6421 20.2324 18.6097 21.2068 19.1297 22.7264C20.5298 26.8176 25.004 29.6055 28.8812 27.4869C30.4174 26.6475 33.0676 27.5549 34.0665 30.4738C35.4666 34.5651 39.9408 37.353 43.818 35.2343C44.214 35.018 44.6839 34.9177 45.1806 34.938V37.8486C43.6891 37.3765 42.0645 37.4478 40.5331 38.2847C38.9969 39.124 36.3467 38.2166 35.3478 35.2978C33.9477 31.2065 29.4735 28.4186 25.5963 30.5372C24.0601 31.3766 21.4099 30.4692 20.411 27.5503C19.7312 25.5637 18.3264 23.8843 16.6172 22.9249V19.7658Z" fill="#747474"/>
<path d="M19.3464 17.7183C20.6055 18.7032 21.6154 20.0976 22.1601 21.6893C23.159 24.6082 25.8092 25.5156 27.3454 24.6762C31.2226 22.5576 35.6969 25.3455 37.0969 29.4368C38.0958 32.3556 40.746 33.263 42.2822 32.4236C43.2305 31.9054 44.2145 31.6808 45.1806 31.6969V17.7183H19.3464Z" fill="#747474"/>
<path d="M16.6172 27.0918V30.1773C17.49 31.0722 18.1855 32.1811 18.605 33.407C19.6039 36.3258 22.2541 37.2333 23.7903 36.3939C27.6675 34.2752 32.1417 37.0631 33.5418 41.1544C34.5406 44.0733 37.1909 44.9807 38.727 44.1413C40.907 42.9501 43.2757 43.31 45.1806 44.5805V41.3555C44.1151 40.7016 42.9208 40.6299 42.0689 41.0954C38.1917 43.214 33.7175 40.4261 32.3174 36.3348C31.3185 33.416 28.6683 32.5085 27.1321 33.3479C23.2549 35.4666 18.7807 32.6787 17.3806 28.5874C17.1834 28.0111 16.9218 27.5133 16.6172 27.0918Z" fill="#747474"/>
<path d="M33.4813 46.2816C32.1497 45.2916 31.0784 43.8484 30.5114 42.1915C29.5125 39.2726 26.8623 38.3652 25.3261 39.2046C22.1517 40.9391 18.5772 39.3848 16.6172 36.5191V46.2816H33.4813Z" fill="#747474"/>
<path fill-rule="evenodd" clip-rule="evenodd" d="M57.3879 23.8037C58.8483 23.8037 60.1241 24.0177 61.2155 24.4454C62.3071 24.8731 63.2142 25.4631 63.937 26.2153C64.6596 26.9529 65.1982 27.801 65.552 28.7597C65.9207 29.7038 66.1053 30.6846 66.1053 31.7024V32.1891C66.1053 33.1626 65.9207 34.1213 65.552 35.0655C65.1982 36.0095 64.6596 36.865 63.937 37.6319C63.2142 38.3989 62.3071 39.0111 61.2155 39.4683C60.1241 39.9256 58.8483 40.1542 57.3879 40.1542H51.5469V23.8037H57.3879ZM57.5871 37.2337H54.6885V26.7242H57.5871C58.4279 26.7242 59.1726 26.8423 59.8217 27.0783C60.4854 27.3143 61.0459 27.6609 61.5032 28.1182C61.9605 28.5754 62.3071 29.1285 62.5429 29.7775C62.7938 30.4118 62.9192 31.1345 62.9192 31.9457C62.9192 32.7276 62.7938 33.4429 62.5429 34.0919C62.3071 34.7261 61.9605 35.2793 61.5032 35.7513C61.0459 36.2233 60.4854 36.592 59.8217 36.8576C59.1726 37.1083 58.4279 37.2337 57.5871 37.2337Z" fill="#747474"/>
<path d="M68.4318 39.0701C69.1988 39.9845 70.2757 40.4418 71.662 40.4418H71.7949C72.7242 40.4418 73.4986 40.2354 74.118 39.8224C74.7376 39.4093 75.2021 38.7972 75.5118 37.986C75.5975 37.7617 75.6713 37.5223 75.7332 37.2677V40.0657H78.167V28.0296H75.0914V35.1318C75.0914 35.9136 74.863 36.5331 74.4057 36.9904C73.9631 37.4475 73.3879 37.6762 72.6798 37.6762C71.9719 37.6762 71.4114 37.4624 70.9982 37.0345C70.5853 36.592 70.3789 36.002 70.3789 35.2646V28.0296H67.3036V34.999C67.3036 36.7985 67.6795 38.1555 68.4318 39.0701Z" fill="#747474"/>
<path d="M80.5933 40.0657V28.0517H83.0271V31.0128C83.0984 30.7044 83.1869 30.4181 83.2927 30.1536C83.6173 29.3277 84.0965 28.7081 84.7309 28.2952C85.3799 27.8822 86.1838 27.6756 87.1425 27.6756H87.2751C88.7061 27.6756 89.7902 28.1402 90.5278 29.0695C91.265 29.9839 91.6338 31.3558 91.6338 33.1848V40.0657H88.5585V32.9193C88.5585 32.1817 88.3445 31.5845 87.9169 31.1272C87.5037 30.6699 86.9285 30.4412 86.191 30.4412C85.4387 30.4412 84.8266 30.6772 84.3546 31.1492C83.8973 31.6065 83.669 32.226 83.669 33.0078V40.0657H80.5933Z" fill="#747474"/>
<path fill-rule="evenodd" clip-rule="evenodd" d="M96.4889 39.9551C97.2709 40.3091 98.1779 40.4861 99.2104 40.4861C100.199 40.4861 101.076 40.3164 101.843 39.9772C102.625 39.638 103.267 39.1586 103.768 38.539C104.27 37.9195 104.609 37.1968 104.786 36.3707H101.954C101.821 36.8133 101.519 37.1895 101.047 37.4991C100.575 37.7942 99.9627 37.9417 99.2104 37.9417C98.4582 37.9417 97.8386 37.7794 97.3519 37.4549C96.8652 37.1157 96.5036 36.6584 96.2677 36.0831C96.1107 35.6912 96.0059 35.2635 95.9534 34.7999H104.985V33.6936C104.985 32.6317 104.764 31.6434 104.321 30.7288C103.879 29.7997 103.215 29.0548 102.33 28.4943C101.46 27.9191 100.376 27.6313 99.0775 27.6313C98.0894 27.6313 97.2192 27.8083 96.467 28.1624C95.7147 28.5016 95.0804 28.9663 94.564 29.5562C94.0626 30.1316 93.6791 30.7953 93.4135 31.5476C93.1627 32.285 93.0376 33.0521 93.0376 33.8486V34.269C93.0376 35.0359 93.1627 35.7882 93.4135 36.5257C93.6791 37.2631 94.0626 37.9344 94.564 38.539C95.0804 39.1291 95.7219 39.6011 96.4889 39.9551ZM96.0059 32.9193C96.0651 32.5813 96.1523 32.2715 96.2677 31.99C96.4035 31.6708 96.5715 31.3927 96.772 31.1555C96.9418 30.9542 97.1351 30.7825 97.3519 30.6403C97.8239 30.3307 98.3991 30.1758 99.0775 30.1758C99.756 30.1758 100.316 30.3233 100.759 30.6183C101.216 30.9132 101.556 31.3336 101.777 31.8794C101.833 32.0169 101.881 32.1614 101.923 32.313C101.943 32.3863 101.962 32.4612 101.979 32.5378C102.006 32.6608 102.029 32.7879 102.047 32.9193H96.0059Z" fill="#747474"/>
</svg>
