<svg width="115" height="64" viewBox="0 0 115 64" fill="none" xmlns="http://www.w3.org/2000/svg">
<path d="M31.8344 38.915C31.9613 40.4307 31.4484 41.9906 30.2936 43.1555C29.1389 44.3205 27.5837 44.8472 26.0668 44.7337C25.9399 43.2179 26.4528 41.658 27.6076 40.4931C28.7623 39.3281 30.3176 38.8014 31.8344 38.915Z" fill="#747474"/>
<path d="M29.0869 36.8086C27.5731 38.4275 25.3861 39.398 22.9985 39.2889C20.6112 39.1799 18.522 38.0143 17.1621 36.2645C18.6759 34.6457 20.8628 33.6752 23.2504 33.7842C25.6378 33.8933 27.7269 35.0588 29.0869 36.8086Z" fill="#747474"/>
<path d="M16.2722 31.5987C16.5884 27.808 18.5009 24.1743 21.8322 21.7808C25.1634 19.3874 29.2172 18.7342 32.9106 19.6438C32.5943 23.4345 30.6818 27.0682 27.3505 29.4617C24.0194 31.8551 19.9656 32.5083 16.2722 31.5987Z" fill="#747474"/>
<path d="M77.6785 26.9502V29.2585H79.0636V41.3264H81.5257V29.2585H84.7574V26.9502H81.5257V24.5882C81.5257 23.911 81.5873 23.3673 81.7104 22.9569C81.8335 22.5466 81.9977 22.2593 82.2029 22.0951C82.4285 21.9105 82.6953 21.8182 83.0031 21.8182C83.2493 21.8182 83.5058 21.8695 83.7725 21.972C84.0598 22.0541 84.306 22.2695 84.5112 22.6184L85.8653 20.5871C85.7217 20.3819 85.5166 20.1869 85.2499 20.0023C85.0037 19.8176 84.7061 19.6637 84.3573 19.5406C84.0085 19.4175 83.6083 19.356 83.157 19.356C82.2952 19.356 81.5565 19.5406 80.941 19.9099C80.3459 20.2587 79.8843 20.7922 79.5559 21.5104C79.2277 22.2285 79.0636 23.1518 79.0636 24.2803V26.9502H77.6785Z" fill="#747474"/>
<path d="M39.0129 22.2442L39.0129 41.3264H50.0929V38.8641H41.629V22.2442H39.0129Z" fill="#747474"/>
<path fill-rule="evenodd" clip-rule="evenodd" d="M56.6545 41.6341C58.1729 41.6341 59.4861 41.3366 60.5941 40.7415C61.7226 40.126 62.6562 39.2231 63.3949 38.0331L61.3943 36.7712C60.8813 37.633 60.2556 38.2793 59.5169 38.7102C58.7782 39.1205 57.9266 39.3257 56.9623 39.3257C55.9979 39.3257 55.1772 39.1205 54.5001 38.7102C53.823 38.2998 53.31 37.7048 52.9612 36.9251C52.6961 36.3326 52.5318 35.6452 52.4682 34.863H63.6103V34.586C63.6308 34.4219 63.6411 34.268 63.6411 34.1243C63.6411 32.6265 63.3743 31.3339 62.8408 30.2464C62.3074 29.1589 61.5379 28.3279 60.5325 27.7533C59.5476 27.1584 58.3576 26.8608 56.9623 26.8608C55.5671 26.8608 54.336 27.1686 53.269 27.7841C52.2226 28.3997 51.4018 29.2615 50.8067 30.3695C50.2323 31.4775 49.9451 32.7701 49.9451 34.2475C49.9451 35.7043 50.222 36.9866 50.776 38.0946C51.3505 39.2026 52.1405 40.0747 53.1459 40.7108C54.1718 41.3264 55.3414 41.6341 56.6545 41.6341ZM52.992 31.3544C52.7953 31.7709 52.6509 32.2428 52.5586 32.7701H60.9497C60.9024 32.0958 60.7325 31.5009 60.4402 30.985C60.1119 30.3695 59.6502 29.8873 59.0551 29.5385C58.4602 29.1897 57.7625 29.0152 56.9623 29.0152C56.0184 29.0152 55.208 29.2205 54.5309 29.6308C53.8742 30.0206 53.3613 30.5952 52.992 31.3544Z" fill="#747474"/>
<path fill-rule="evenodd" clip-rule="evenodd" d="M73.6637 33.5641C73.2768 33.3102 72.7843 33.0867 72.1864 32.8932C71.5093 32.647 70.6578 32.5239 69.6318 32.5239C67.8878 32.5239 66.5233 32.9445 65.5384 33.7858C64.574 34.6065 64.0919 35.7043 64.0919 37.079C64.0919 38.0433 64.3176 38.8641 64.769 39.5412C65.2204 40.2183 65.8155 40.7415 66.5541 41.1108C67.3133 41.4597 68.1238 41.6341 68.9856 41.6341C69.7652 41.6341 70.5449 41.4905 71.3246 41.2032C72.1249 40.9159 72.7917 40.4748 73.3252 39.8798C73.4527 39.7428 73.5655 39.5976 73.6637 39.4443V41.3264H76.126V31.1697C76.126 30.2464 75.8899 29.4667 75.4181 28.8306C74.9667 28.1946 74.3203 27.7123 73.4791 27.3841C72.6583 27.0352 71.6939 26.8608 70.5859 26.8608C69.2728 26.8608 68.1443 27.0558 67.2004 27.4456C66.2771 27.8354 65.5487 28.2253 65.0152 28.6151L66.2155 30.431C66.4412 30.2669 66.7491 30.0719 67.1389 29.8462C67.5287 29.6205 68.0007 29.4256 68.5546 29.2615C69.1292 29.0973 69.7652 29.0152 70.4629 29.0152C70.8938 29.0152 71.3041 29.0563 71.6939 29.1384C72.0838 29.2205 72.4224 29.3538 72.7096 29.5385C73.0174 29.7231 73.2534 29.9796 73.4175 30.3079C73.5816 30.6157 73.6637 31.0158 73.6637 31.5083V33.5641ZM66.9542 35.6325C66.708 36.0018 66.5848 36.443 66.5848 36.9559C66.5848 37.4894 66.708 37.951 66.9542 38.3409C67.221 38.7307 67.58 39.0282 68.0315 39.2334C68.5033 39.4181 69.0369 39.5105 69.6318 39.5105C70.391 39.5105 71.0682 39.3565 71.6632 39.0487C72.2788 38.741 72.7609 38.3101 73.1098 37.7561C73.4791 37.1815 73.6637 36.525 73.6637 35.7863V35.2538C73.2695 35.062 72.8694 34.9112 72.4634 34.8014C71.7042 34.5758 70.8938 34.4629 70.032 34.4629C69.2318 34.4629 68.5751 34.5655 68.0622 34.7707C67.5697 34.9758 67.2004 35.2631 66.9542 35.6325Z" fill="#747474"/>
<path fill-rule="evenodd" clip-rule="evenodd" d="M95.4413 40.7415C94.3333 41.3366 93.0201 41.6341 91.5018 41.6341C90.1886 41.6341 89.019 41.3264 87.9931 40.7108C86.9877 40.0747 86.1977 39.2026 85.6233 38.0946C85.0692 36.9866 84.7923 35.7043 84.7923 34.2475C84.7923 32.7701 85.0795 31.4775 85.654 30.3695C86.249 29.2615 87.0698 28.3997 88.1162 27.7841C89.1832 27.1686 90.4143 26.8608 91.8096 26.8608C93.2048 26.8608 94.3948 27.1584 95.3797 27.7533C96.3851 28.3279 97.1546 29.1589 97.6881 30.2464C98.2216 31.3339 98.4883 32.6265 98.4883 34.1243C98.4883 34.268 98.478 34.4219 98.4575 34.586V34.863H87.3154C87.379 35.6452 87.5434 36.3326 87.8085 36.9251C88.1573 37.7048 88.6703 38.2998 89.3473 38.7102C90.0244 39.1205 90.8452 39.3257 91.8096 39.3257C92.7739 39.3257 93.6255 39.1205 94.3641 38.7102C95.1028 38.2793 95.7286 37.633 96.2415 36.7712L98.2421 38.0331C97.5034 39.2231 96.5698 40.126 95.4413 40.7415ZM87.4058 32.7701C87.4981 32.2428 87.6427 31.7709 87.8393 31.3544C88.2085 30.5952 88.7216 30.0206 89.3781 29.6308C90.0552 29.2205 90.8657 29.0152 91.8096 29.0152C92.6098 29.0152 93.3074 29.1897 93.9024 29.5385C94.4974 29.8873 94.9591 30.3695 95.2874 30.985C95.5797 31.5009 95.7496 32.0958 95.7969 32.7701H87.4058Z" fill="#747474"/>
</svg>
