<svg width="177" height="64" viewBox="0 0 177 64" fill="none" xmlns="http://www.w3.org/2000/svg">
<path d="M43.1909 40.6668V22.2515H46.5583L55.2135 35.2211V22.2515H58.5809V40.6668H55.2135L46.5583 27.7234V40.6668H43.1909Z" fill="#747474"/>
<path d="M67.0967 40.9825C65.7813 40.9825 64.615 40.7019 63.5978 40.1406C62.5806 39.5794 61.7826 38.7902 61.2038 37.7729C60.625 36.7557 60.3357 35.5806 60.3357 34.2477C60.3357 32.8973 60.6163 31.6959 61.1775 30.6436C61.7563 29.5913 62.5455 28.7757 63.5452 28.197C64.5624 27.6007 65.755 27.3025 67.123 27.3025C68.4033 27.3025 69.5345 27.5831 70.5167 28.1444C71.4988 28.7056 72.2618 29.4773 72.8055 30.4594C73.3667 31.424 73.6473 32.5027 73.6473 33.6953C73.6473 33.8882 73.6385 34.0899 73.621 34.3003C73.621 34.5108 73.6122 34.73 73.5947 34.958H63.6767C63.7469 35.9753 64.0976 36.7733 64.729 37.352C65.378 37.9308 66.1584 38.2202 67.0704 38.2202C67.7544 38.2202 68.3244 38.0711 68.7804 37.7729C69.2539 37.4573 69.6047 37.0539 69.8327 36.5628H73.2527C73.0072 37.3871 72.595 38.1413 72.0162 38.8252C71.455 39.4917 70.7535 40.0179 69.9116 40.4037C69.0873 40.7896 68.149 40.9825 67.0967 40.9825ZM67.123 30.0385C66.2987 30.0385 65.5709 30.2753 64.9395 30.7488C64.3081 31.2048 63.9047 31.9064 63.7293 32.8534H70.2273C70.1747 31.994 69.859 31.31 69.2802 30.8014C68.7015 30.2928 67.9824 30.0385 67.123 30.0385Z" fill="#747474"/>
<path d="M73.0285 40.6668L77.7638 34.1425L73.0285 27.6182H76.6326L79.9474 32.2484L83.2358 27.6182H86.8663L82.1046 34.1425L86.8663 40.6668H83.2358L79.9474 36.0366L76.6326 40.6668H73.0285Z" fill="#747474"/>
<path d="M93.5102 40.6668C92.1422 40.6668 91.046 40.3336 90.2217 39.6671C89.3974 39.0006 88.9852 37.8168 88.9852 36.1156V30.4331H86.7491V27.6182H88.9852L89.3799 24.1193H92.3526V27.6182H95.8778V30.4331H92.3526V36.1419C92.3526 36.7733 92.4842 37.2117 92.7472 37.4573C93.0278 37.6853 93.5014 37.7993 94.1678 37.7993H95.7989V40.6668H93.5102Z" fill="#747474"/>
<path d="M97.4536 40.6668V27.6182H100.426L100.716 29.3808C101.137 28.7494 101.689 28.2496 102.373 27.8813C103.075 27.4954 103.881 27.3025 104.793 27.3025C106.81 27.3025 108.24 28.083 109.082 29.6439C109.555 28.9248 110.187 28.3548 110.976 27.9339C111.782 27.513 112.659 27.3025 113.606 27.3025C115.308 27.3025 116.614 27.8111 117.526 28.8284C118.438 29.8456 118.894 31.3364 118.894 33.3007V40.6668H115.527V33.6163C115.527 32.4939 115.308 31.6345 114.869 31.0382C114.448 30.4419 113.791 30.1437 112.896 30.1437C111.984 30.1437 111.248 30.477 110.686 31.1434C110.143 31.8099 109.871 32.7394 109.871 33.932V40.6668H106.503V33.6163C106.503 32.4939 106.284 31.6345 105.846 31.0382C105.407 30.4419 104.732 30.1437 103.82 30.1437C102.926 30.1437 102.198 30.477 101.637 31.1434C101.093 31.8099 100.821 32.7394 100.821 33.932V40.6668H97.4536Z" fill="#747474"/>
<path d="M127.037 40.9825C125.774 40.9825 124.634 40.6931 123.617 40.1143C122.617 39.5356 121.819 38.7376 121.223 37.7203C120.644 36.6856 120.355 35.493 120.355 34.1425C120.355 32.792 120.653 31.6082 121.249 30.591C121.846 29.5562 122.644 28.7494 123.643 28.1707C124.661 27.5919 125.801 27.3025 127.063 27.3025C128.309 27.3025 129.431 27.5919 130.431 28.1707C131.448 28.7494 132.246 29.5562 132.825 30.591C133.421 31.6082 133.719 32.792 133.719 34.1425C133.719 35.493 133.421 36.6856 132.825 37.7203C132.246 38.7376 131.448 39.5356 130.431 40.1143C129.414 40.6931 128.282 40.9825 127.037 40.9825ZM127.037 38.0623C127.914 38.0623 128.677 37.7379 129.326 37.0889C129.975 36.4225 130.299 35.4403 130.299 34.1425C130.299 32.8447 129.975 31.8713 129.326 31.2224C128.677 30.5559 127.923 30.2227 127.063 30.2227C126.169 30.2227 125.397 30.5559 124.748 31.2224C124.117 31.8713 123.801 32.8447 123.801 34.1425C123.801 35.4403 124.117 36.4225 124.748 37.0889C125.397 37.7379 126.16 38.0623 127.037 38.0623Z" fill="#747474"/>
<path d="M138.298 40.6668L133.51 27.6182H137.035L140.35 37.4836L143.664 27.6182H147.19L142.375 40.6668H138.298Z" fill="#747474"/>
<path d="M153.696 40.9825C152.381 40.9825 151.214 40.7019 150.197 40.1406C149.18 39.5794 148.382 38.7902 147.803 37.7729C147.224 36.7557 146.935 35.5806 146.935 34.2477C146.935 32.8973 147.216 31.6959 147.777 30.6436C148.356 29.5913 149.145 28.7757 150.144 28.197C151.162 27.6007 152.354 27.3025 153.722 27.3025C155.003 27.3025 156.134 27.5831 157.116 28.1444C158.098 28.7056 158.861 29.4773 159.405 30.4594C159.966 31.424 160.247 32.5027 160.247 33.6953C160.247 33.8882 160.238 34.0899 160.22 34.3003C160.22 34.5108 160.211 34.73 160.194 34.958H150.276C150.346 35.9753 150.697 36.7733 151.328 37.352C151.977 37.9308 152.758 38.2202 153.67 38.2202C154.354 38.2202 154.924 38.0711 155.38 37.7729C155.853 37.4573 156.204 37.0539 156.432 36.5628H159.852C159.606 37.3871 159.194 38.1413 158.616 38.8252C158.054 39.4917 157.353 40.0179 156.511 40.4037C155.687 40.7896 154.748 40.9825 153.696 40.9825ZM153.722 30.0385C152.898 30.0385 152.17 30.2753 151.539 30.7488C150.907 31.2048 150.504 31.9064 150.329 32.8534H156.827C156.774 31.994 156.458 31.31 155.88 30.8014C155.301 30.2928 154.582 30.0385 153.722 30.0385Z" fill="#747474"/>
<path d="M26.5866 21.8935V30.2184C26.5866 31.1686 25.8163 31.9389 24.8661 31.9389L16.5412 31.9389L16.5412 28.498H20.708L16.3301 24.1201L18.7632 21.687L23.1457 26.0695L23.1457 21.8935L26.5866 21.8935Z" fill="#747474"/>
<path d="M36.7495 32.0568H28.4246C27.4744 32.0568 26.7042 32.8271 26.7042 33.7773V42.1022L30.1451 42.1022L30.1451 37.9351L34.5233 42.3133L36.9563 39.8802L32.5739 35.4977H36.7495V32.0568Z" fill="#747474"/>
</svg>
