<svg width="124" height="64" viewBox="0 0 124 64" fill="none" xmlns="http://www.w3.org/2000/svg">
<path d="M46.134 23.9371V20.7769H62.0342V23.9371H55.8967V42.6434H52.3351V23.9371H46.134Z" fill="#747474"/>
<path d="M71.7735 39.7704L72.6639 39.6747L72.7275 42.2603C70.3107 42.7498 68.1695 42.9945 66.3038 42.9945C63.9506 42.9945 62.2546 42.3455 61.2158 41.0473C60.1982 39.7491 59.6894 37.6742 59.6894 34.8225C59.6894 29.1617 61.9896 26.3313 66.59 26.3313C71.0421 26.3313 73.2681 28.768 73.2681 33.6414L73.0455 36.1313H63.1874C63.2086 37.4508 63.4948 38.4191 64.046 39.0362C64.5972 39.6534 65.6254 39.962 67.1307 39.962C68.6359 39.962 70.1835 39.8981 71.7735 39.7704ZM69.8655 33.4499C69.8655 31.8751 69.6111 30.7791 69.1023 30.1619C68.6147 29.5235 67.7773 29.2043 66.59 29.2043C65.4028 29.2043 64.5336 29.5341 63.9824 30.1938C63.4524 30.8536 63.1768 31.9389 63.1556 33.4499H69.8655Z" fill="#747474"/>
<path d="M75.0111 42.6434V26.6824H78.4456V28.5977C80.2476 27.4273 82.0496 26.6718 83.8516 26.3313V29.8108C82.0284 30.1726 80.4702 30.6407 79.177 31.2153L78.4774 31.5026V42.6434H75.0111Z" fill="#747474"/>
<path d="M84.9115 42.6434V26.6824H88.3459V28.5977C90.1479 27.4273 91.9499 26.6718 93.7519 26.3313V29.8108C91.9287 30.1726 90.3705 30.6407 89.0773 31.2153L88.3777 31.5026V42.6434H84.9115Z" fill="#747474"/>
<path d="M106.578 31.5984V38.8766C106.599 39.3448 106.716 39.6959 106.928 39.93C107.161 40.1428 107.511 40.2812 107.977 40.345L107.882 42.9945C106.058 42.9945 104.649 42.6008 103.652 41.8134C101.956 42.6008 100.25 42.9945 98.5324 42.9945C95.3736 42.9945 93.7942 41.3027 93.7942 37.919C93.7942 36.3016 94.2182 35.1311 95.0662 34.4075C95.9354 33.684 97.2604 33.2477 99.0412 33.0987L103.143 32.7476V31.5984C103.143 30.7472 102.953 30.1513 102.571 29.8108C102.211 29.4703 101.67 29.3 100.949 29.3C99.5924 29.3 97.8964 29.3851 95.8612 29.5554L94.8436 29.6192L94.7164 27.1612C97.0272 26.6079 99.1472 26.3313 101.076 26.3313C103.027 26.3313 104.426 26.7569 105.274 27.6082C106.143 28.4381 106.578 29.7682 106.578 31.5984ZM99.4546 35.5567C97.9918 35.6844 97.2604 36.4825 97.2604 37.9509C97.2604 39.4193 97.907 40.1535 99.2002 40.1535C100.26 40.1535 101.384 39.9832 102.571 39.6427L103.143 39.4512V35.2056L99.4546 35.5567Z" fill="#747474"/>
<path fill-rule="evenodd" clip-rule="evenodd" d="M36.514 18.9443C39.2812 18.9443 41.5899 20.9072 42.1238 23.5165C42.2001 23.8893 42.2402 24.2752 42.2402 24.6705V39.3296C42.2402 42.4921 39.6765 45.0558 36.514 45.0558H21.8549C21.2288 45.0558 20.6262 44.9554 20.0623 44.7697C17.7778 44.0173 16.1287 41.866 16.1287 39.3296V24.6705C16.1287 21.508 18.6924 18.9443 21.8549 18.9443H36.514ZM34.1914 20.7767H36.514C38.4117 20.7767 39.9923 22.1343 40.3377 23.9312C39.2356 24.0561 37.9759 23.9404 36.6457 23.3703C35.4669 22.8651 34.685 21.9291 34.1914 20.7767ZM28.7545 20.7767H32.2349C32.8131 22.5174 33.9209 24.1961 35.9239 25.0545C37.5307 25.7431 39.0566 25.9029 40.4078 25.7687V27.641C38.5733 28.2217 36.7452 28.4568 35.2825 28.0286C34.5559 27.816 33.7223 27.2514 32.8252 26.3633C31.9403 25.4873 31.0574 24.3606 30.2236 23.1291C29.7055 22.3637 29.2121 21.5665 28.7545 20.7767ZM26.6501 20.7767H24.2254C24.3359 22.8502 23.8473 25.3829 22.0299 27.9487C20.8258 29.6486 19.402 30.5835 17.961 31.0011V34.654C18.8293 34.1267 19.8514 33.4066 21.0481 32.4343C23.8757 30.1369 26.1028 29.2228 27.7915 29.0556C29.4705 28.8894 30.664 29.4718 31.1898 30.2079C31.7417 30.9806 32.0537 32.0161 32.1712 33.1083C32.29 34.2137 32.2176 35.4465 31.9388 36.6701C31.3846 39.1026 29.9776 41.6346 27.4429 42.9995C27.3049 43.0738 27.1656 43.1485 27.0252 43.2235H29.8733C30.9873 41.8094 31.8786 40.4044 32.1983 39.3032C32.5592 38.0603 32.7073 36.7426 32.8458 35.5107L32.8458 35.5104L32.8459 35.5101C32.8956 35.0677 32.9441 34.6362 33.0008 34.2232C33.099 33.5076 33.2345 32.7495 33.5258 32.2028C33.6799 31.9135 33.9247 31.5914 34.3188 31.4055C34.7336 31.2097 35.1652 31.2337 35.5439 31.36C36.6052 31.7137 38.0162 31.787 40.4078 31.188V29.5535C38.5635 30.0732 36.5526 30.3096 34.7677 29.7872C33.6161 29.4502 32.5228 28.6424 31.536 27.6655C30.537 26.6764 29.5789 25.4453 28.7063 24.1563C27.9598 23.0538 27.265 21.8926 26.6501 20.7767ZM40.4078 33.0725C38.1294 33.594 36.491 33.5723 35.1053 33.1436C35.0029 33.3833 34.9073 33.8085 34.8162 34.4724C34.7709 34.8022 34.7289 35.1771 34.6834 35.5825L34.6834 35.5828C34.5418 36.8463 34.367 38.4055 33.958 39.8141C33.6446 40.8939 32.9667 42.08 32.1608 43.2235H34.0043C34.3443 42.3779 34.6575 41.5726 34.9034 40.8956C35.1677 40.1682 35.3333 39.6451 35.3865 39.3789C35.4876 38.8733 35.6803 38.3295 36.1321 37.9438C36.602 37.5426 37.1793 37.4565 37.7201 37.484C38.2526 37.5111 38.877 37.6545 39.5814 37.8566C39.8375 37.93 40.1128 38.0139 40.4078 38.1069V33.0725ZM40.3482 40.012C39.8699 39.8567 39.4491 39.7249 39.0762 39.6179C38.3956 39.4227 37.9391 39.3299 37.627 39.3141C37.4255 39.3038 37.3439 39.3286 37.3205 39.3391C37.3074 39.3546 37.2423 39.4433 37.1833 39.7383C37.0991 40.1592 36.8859 40.8052 36.6257 41.5213C36.4389 42.0354 36.217 42.6149 35.9768 43.2235H36.514C38.4317 43.2235 40.0256 41.8371 40.3482 40.012ZM23.0715 43.2235C24.2715 42.6046 25.4827 41.9738 26.5741 41.3861C28.5059 40.346 29.6757 38.3543 30.1522 36.263C30.3888 35.2248 30.4451 34.1958 30.3493 33.3042C30.252 32.3994 30.0057 31.7027 29.6987 31.2729C29.6519 31.2073 29.1847 30.759 27.972 30.8791C26.769 30.9982 24.8732 31.6874 22.2036 33.8565C20.5325 35.2142 19.134 36.1446 17.961 36.7595V38.826C18.2502 38.5614 18.5767 38.3404 18.8785 38.1518C19.1859 37.9597 19.5208 37.7707 19.85 37.5861L19.9316 37.5404C20.2391 37.368 20.5443 37.197 20.8474 37.0155C21.5104 36.6184 22.1065 36.2036 22.5649 35.721C23.3586 34.8855 24.5041 33.8883 25.5811 33.2075C26.1124 32.8717 26.6862 32.5746 27.2275 32.4383C27.7356 32.3103 28.5234 32.2582 29.0724 32.8857C29.5947 33.4829 29.8113 34.3786 29.4307 35.541C29.0693 36.6451 28.1616 38.0393 26.4071 39.8523C24.5859 41.7342 22.7646 42.677 21.2291 42.9774C21.0559 43.0112 20.8855 43.0371 20.7186 43.0551C21.0781 43.1646 21.4596 43.2235 21.8549 43.2235H23.0715ZM17.961 29.0623C18.8488 28.6941 19.7333 28.0209 20.5346 26.8895C22.1169 24.6557 22.4993 22.4896 22.3904 20.7767H21.8549C19.7044 20.7767 17.961 22.52 17.961 24.6705V29.0623ZM37.3187 39.3399C37.3144 39.342 37.3127 39.3433 37.3129 39.3435C37.313 39.3436 37.314 39.3431 37.3156 39.3421L37.3168 39.3413L37.3187 39.3399ZM26.5601 34.7564C25.6374 35.3397 24.6068 36.232 23.8935 36.983C23.264 37.6457 22.5002 38.1614 21.7889 38.5875C21.462 38.7832 21.1343 38.9669 20.8304 39.1372L20.7463 39.1844C20.4133 39.3711 20.1148 39.54 19.8496 39.7057C19.2777 40.0632 19.0386 40.3034 18.9636 40.4573C18.9421 40.5014 18.9396 40.5267 18.9462 40.5652C18.9556 40.62 18.9951 40.7467 19.152 40.9559L19.1672 40.9762L19.1814 40.9974C19.1822 40.9986 19.2029 41.027 19.2684 41.0672C19.3362 41.1086 19.441 41.1555 19.5899 41.1921C19.8892 41.2657 20.3248 41.2872 20.8772 41.1791C21.9759 40.9641 23.4758 40.2463 25.0903 38.578C26.7716 36.8407 27.4553 35.6856 27.6893 34.971C27.8285 34.5455 27.8 34.3151 27.7555 34.1974C27.7332 34.2015 27.7066 34.2072 27.6752 34.2151C27.4106 34.2818 27.0286 34.4603 26.5601 34.7564ZM27.8541 34.1888C27.8537 34.1892 27.8482 34.1893 27.8389 34.1875C27.8498 34.1874 27.8545 34.1883 27.8541 34.1888Z" fill="#747474"/>
</svg>
