<svg width="135" height="64" viewBox="0 0 135 64" fill="none" xmlns="http://www.w3.org/2000/svg">
<path d="M51.2111 42.4001C48.8313 42.4001 46.975 41.7417 45.6423 40.4248C44.3254 39.108 43.667 37.2279 43.667 34.7846V25.4556H47.5223V34.6418C47.5223 37.6245 48.7599 39.1159 51.2349 39.1159C52.4407 39.1159 53.3609 38.7589 53.9955 38.045C54.6302 37.3151 54.9475 36.1807 54.9475 34.6418V25.4556H58.7552V34.7846C58.7552 37.2279 58.0889 39.108 56.7562 40.4248C55.4393 41.7417 53.591 42.4001 51.2111 42.4001Z" fill="#747474"/>
<path d="M60.6373 33.9278H67.3723V36.9026H60.6373V33.9278Z" fill="#747474"/>
<path d="M71.9561 28.597H66.6253V25.4556H81.1423V28.597H75.8115V42.1145H71.9561V28.597Z" fill="#747474"/>
<path d="M94.3849 29.3109V42.1145H90.8627V40.5914C90.3709 41.1467 89.7838 41.5751 89.1016 41.8765C88.4194 42.1621 87.6816 42.3049 86.8884 42.3049C85.2066 42.3049 83.8739 41.821 82.8902 40.8532C81.9065 39.8854 81.4147 38.4495 81.4147 36.5457V29.3109H85.1273V35.9983C85.1273 38.0608 85.992 39.0921 87.7213 39.0921C88.6098 39.0921 89.3237 38.8065 89.8632 38.2353C90.4026 37.6483 90.6723 36.7836 90.6723 35.6413V29.3109H94.3849Z" fill="#747474"/>
<path d="M100.18 31.0006C100.625 30.3819 101.22 29.9138 101.965 29.5965C102.727 29.2792 103.599 29.1205 104.583 29.1205V32.5475C104.171 32.5158 103.893 32.4999 103.75 32.4999C102.687 32.4999 101.854 32.8014 101.251 33.4043C100.648 33.9913 100.347 34.8798 100.347 36.0697V42.1145H96.6344V29.3109H100.18V31.0006Z" fill="#747474"/>
<path d="M113.383 29.1205C114.969 29.1205 116.247 29.5965 117.214 30.5484C118.198 31.5004 118.69 32.9124 118.69 34.7846V42.1145H114.977V35.3557C114.977 34.3403 114.755 33.5867 114.311 33.0949C113.867 32.5872 113.224 32.3333 112.383 32.3333C111.447 32.3333 110.701 32.6268 110.146 33.2139C109.591 33.785 109.313 34.6418 109.313 35.7841V42.1145H105.601V29.3109H109.147V30.8102C109.638 30.2708 110.249 29.8583 110.979 29.5727C111.709 29.2713 112.51 29.1205 113.383 29.1205Z" fill="#747474"/>
<path fill-rule="evenodd" clip-rule="evenodd" d="M27.0813 21.1262C27.7145 20.4931 28.741 20.4931 29.3741 21.1262L35.3029 27.0551L29.3471 32.7402C28.6994 33.3584 27.6732 33.3345 27.055 32.6869C26.4368 32.0392 26.4606 31.013 27.1083 30.3948L28.9369 28.6493H24.9853C21.8217 28.6493 19.2571 31.2139 19.2571 34.3775C19.2571 37.5412 21.8217 40.1058 24.9853 40.1058H32.9832C33.8786 40.1058 34.6044 40.8316 34.6044 41.727C34.6044 42.6224 33.8786 43.3482 32.9832 43.3482H24.9853C20.0309 43.3482 16.0146 39.3319 16.0146 34.3775C16.0146 29.4232 20.0309 25.4069 24.9853 25.4069H29.0693L27.0813 23.4189C26.4482 22.7858 26.4482 21.7593 27.0813 21.1262Z" fill="#747474"/>
</svg>
