<svg width="157" height="64" viewBox="0 0 157 64" fill="none" xmlns="http://www.w3.org/2000/svg">
<path fill-rule="evenodd" clip-rule="evenodd" d="M47.8079 30.8073C48.4138 33.6975 48.1335 36.3858 47.1544 38.6275L47.2063 38.6267C46.3669 40.924 43.5748 45.7306 37.001 47.109C36.7509 47.1615 36.5011 47.203 36.2519 47.2342C35.6248 47.3264 34.9742 47.3741 34.3027 47.3741C26.5174 47.3741 18.8628 40.9656 17.2055 33.0603C16.4161 29.2947 17.1299 25.8688 18.9352 23.3133C19.7738 21.6991 24.1732 17.7843 27.7236 17.0236C27.82 17.0029 27.9128 16.9867 28.002 16.9748C28.94 16.7465 29.9405 16.626 30.9937 16.626C38.638 16.626 46.166 22.9752 47.8079 30.8073ZM45.1318 30.1443C46.4208 36.2929 42.5987 41.2773 36.5949 41.2773C30.591 41.2773 24.679 36.2929 23.39 30.1443C22.1011 23.9957 25.9232 19.0113 31.927 19.0113C37.9308 19.0113 43.8428 23.9957 45.1318 30.1443ZM36.2284 37.8316C40.6722 37.8316 43.5196 34.2301 42.5883 29.7875C41.6569 25.3448 37.2995 21.7434 32.8556 21.7434C28.4118 21.7434 25.5644 25.3448 26.4957 29.7875C27.4271 34.2301 31.7845 37.8316 36.2284 37.8316ZM40.1869 29.454C40.7712 32.241 38.9364 34.5003 36.0889 34.5003C33.2413 34.5003 30.4593 32.241 29.875 29.454C29.2908 26.667 31.1256 24.4078 33.9731 24.4078C36.8207 24.4078 39.6027 26.667 40.1869 29.454ZM37.576 29.4543C37.8643 30.8298 36.9588 31.9448 35.5534 31.9448C34.148 31.9448 32.775 30.8298 32.4866 29.4543C32.1983 28.0788 33.1038 26.9638 34.5092 26.9638C35.9146 26.9638 37.2876 28.0788 37.576 29.4543Z" fill="#747474"/>
<path d="M68.4071 39.0464C68.4071 39.2233 68.5505 39.3667 68.7274 39.3667H71.1622C71.3391 39.3667 71.4825 39.2233 71.4825 39.0464V27.3528H68.7274C68.5505 27.3528 68.4071 27.4962 68.4071 27.6731V39.0464Z" fill="#747474"/>
<path d="M68.5062 25.45C68.8012 25.7598 69.251 25.9146 69.8558 25.9146C70.4606 25.9146 70.9031 25.7598 71.1833 25.45C71.4636 25.1255 71.6037 24.7272 71.6037 24.2552C71.6037 23.7537 71.4636 23.3481 71.1833 23.0384C70.9031 22.7286 70.4606 22.5737 69.8558 22.5737C69.251 22.5737 68.8012 22.7286 68.5062 23.0384C68.2259 23.3481 68.0858 23.7537 68.0858 24.2552C68.0858 24.7272 68.2259 25.1255 68.5062 25.45Z" fill="#747474"/>
<path fill-rule="evenodd" clip-rule="evenodd" d="M63.5593 33.7469C62.6153 34.1894 61.4648 34.4107 60.1078 34.4107H57.674V39.0464C57.674 39.2233 57.5306 39.3667 57.3537 39.3667H54.8525C54.6756 39.3667 54.5322 39.2233 54.5322 39.0464V23.425C54.5322 23.2481 54.6756 23.1047 54.8525 23.1047H57.3537C57.3883 23.1047 57.4216 23.1102 57.4527 23.1203C57.4839 23.1102 57.5172 23.1047 57.5518 23.1047H60.1078C61.4648 23.1047 62.6153 23.326 63.5593 23.7685C64.5181 24.211 65.2482 24.8452 65.7497 25.6713C66.2512 26.4825 66.5019 27.4486 66.5019 28.5697V28.9237C66.5019 30.0447 66.2512 31.0182 65.7497 31.8442C65.2482 32.6554 64.5181 33.2897 63.5593 33.7469ZM61.9663 26.2023C61.5385 25.9515 61.0075 25.8261 60.3733 25.8261H57.674V31.6893H60.3733C61.0075 31.6893 61.5385 31.5639 61.9663 31.3132C62.4088 31.0624 62.7407 30.7158 62.9619 30.2733C63.1979 29.8308 63.3159 29.3219 63.3159 28.7467C63.3159 28.1714 63.1979 27.6625 62.9619 27.22C62.7407 26.7775 62.4088 26.4383 61.9663 26.2023Z" fill="#747474"/>
<path d="M74.2409 39.3667C74.064 39.3667 73.9206 39.2233 73.9206 39.0464V27.6731C73.9206 27.4962 74.064 27.3528 74.2409 27.3528H76.0341C76.211 27.3528 76.3544 27.4962 76.3544 27.6731V30.3133C76.4257 30.0052 76.5142 29.719 76.6199 29.4547C76.9444 28.6287 77.4238 28.0091 78.058 27.5961C78.707 27.1831 79.5109 26.9766 80.4697 26.9766H80.6024C82.0332 26.9766 83.1173 27.4413 83.8548 28.3705C84.5923 29.285 84.9611 30.6568 84.9611 32.4858V39.0464C84.9611 39.2233 84.8177 39.3667 84.6408 39.3667H82.206C82.0291 39.3667 81.8857 39.2233 81.8857 39.0464V32.2203C81.8857 31.4828 81.6718 30.8854 81.244 30.4282C80.831 29.9709 80.2558 29.7423 79.5183 29.7423C78.766 29.7423 78.1539 29.9783 77.6819 30.4503C77.2246 30.9075 76.996 31.527 76.996 32.3088V39.0464C76.996 39.2233 76.8526 39.3667 76.6757 39.3667H74.2409Z" fill="#747474"/>
<path fill-rule="evenodd" clip-rule="evenodd" d="M96.4316 33.7469C95.4876 34.1894 94.3371 34.4107 92.9801 34.4107H90.5463V39.0464C90.5463 39.2233 90.4029 39.3667 90.226 39.3667H87.7248C87.5479 39.3667 87.4045 39.2233 87.4045 39.0464V23.425C87.4045 23.2481 87.5479 23.1047 87.7248 23.1047H90.226C90.2606 23.1047 90.2938 23.1102 90.325 23.1203C90.3562 23.1102 90.3895 23.1047 90.4241 23.1047H92.9801C94.3371 23.1047 95.4876 23.326 96.4316 23.7685C97.3903 24.211 98.1205 24.8452 98.622 25.6713C99.1235 26.4825 99.3742 27.4486 99.3742 28.5697V28.9237C99.3742 30.0447 99.1235 31.0182 98.622 31.8442C98.1205 32.6554 97.3903 33.2897 96.4316 33.7469ZM94.8386 26.2023C94.4108 25.9515 93.8798 25.8261 93.2456 25.8261H90.5463V31.6893H93.2456C93.8798 31.6893 94.4108 31.5639 94.8386 31.3132C95.2811 31.0624 95.6129 30.7158 95.8342 30.2733C96.0702 29.8308 96.1882 29.3219 96.1882 28.7467C96.1882 28.1714 96.0702 27.6625 95.8342 27.22C95.6129 26.7775 95.2811 26.4383 94.8386 26.2023Z" fill="#747474"/>
<path fill-rule="evenodd" clip-rule="evenodd" d="M106.22 39.7871C105.158 39.7871 104.221 39.6175 103.41 39.2782C102.598 38.939 101.913 38.4817 101.352 37.9065C100.791 37.3165 100.364 36.6527 100.069 35.9152C99.7885 35.1777 99.6484 34.4107 99.6484 33.6142V33.1496C99.6484 32.3236 99.7959 31.5418 100.091 30.8043C100.401 30.052 100.836 29.3883 101.396 28.813C101.972 28.223 102.665 27.7658 103.476 27.4413C104.287 27.102 105.202 26.9324 106.22 26.9324C107.237 26.9324 108.152 27.102 108.963 27.4413C109.774 27.7658 110.46 28.223 111.021 28.813C111.596 29.3883 112.031 30.052 112.326 30.8043C112.621 31.5418 112.769 32.3236 112.769 33.1496V33.6142C112.769 34.4107 112.621 35.1777 112.326 35.9152C112.046 36.6527 111.625 37.3165 111.065 37.9065C110.504 38.4817 109.819 38.939 109.007 39.2782C108.196 39.6175 107.267 39.7871 106.22 39.7871ZM106.22 37.1542C106.972 37.1542 107.606 36.992 108.122 36.6675C108.639 36.3282 109.029 35.8783 109.295 35.3178C109.56 34.7426 109.693 34.0936 109.693 33.3708C109.693 32.6333 109.553 31.9843 109.273 31.4238C109.007 30.8485 108.609 30.3987 108.078 30.0742C107.562 29.7349 106.942 29.5653 106.22 29.5653C105.497 29.5653 104.87 29.7349 104.339 30.0742C103.823 30.3987 103.424 30.8485 103.144 31.4238C102.864 31.9843 102.724 32.6333 102.724 33.3708C102.724 34.0936 102.857 34.7426 103.122 35.3178C103.402 35.8783 103.801 36.3282 104.317 36.6675C104.833 36.992 105.467 37.1542 106.22 37.1542Z" fill="#747474"/>
<path d="M114.93 39.0464C114.93 39.2233 115.074 39.3667 115.251 39.3667H117.686C117.862 39.3667 118.006 39.2233 118.006 39.0464V27.3528H115.251C115.074 27.3528 114.93 27.4962 114.93 27.6731V39.0464Z" fill="#747474"/>
<path d="M115.03 25.45C115.325 25.7598 115.774 25.9146 116.379 25.9146C116.984 25.9146 117.426 25.7598 117.707 25.45C117.987 25.1255 118.127 24.7272 118.127 24.2552C118.127 23.7537 117.987 23.3481 117.707 23.0384C117.426 22.7286 116.984 22.5737 116.379 22.5737C115.774 22.5737 115.325 22.7286 115.03 23.0384C114.749 23.3481 114.609 23.7537 114.609 24.2552C114.609 24.7272 114.749 25.1255 115.03 25.45Z" fill="#747474"/>
<path d="M120.764 39.3667C120.587 39.3667 120.444 39.2233 120.444 39.0464V27.6731C120.444 27.4962 120.587 27.3528 120.764 27.3528H122.557C122.734 27.3528 122.878 27.4962 122.878 27.6731V30.3133C122.949 30.0052 123.037 29.719 123.143 29.4547C123.468 28.6287 123.947 28.0091 124.581 27.5961C125.23 27.1831 126.034 26.9766 126.993 26.9766H127.126C128.557 26.9766 129.641 27.4413 130.378 28.3705C131.116 29.285 131.484 30.6568 131.484 32.4858V39.0464C131.484 39.2233 131.341 39.3667 131.164 39.3667H128.729C128.552 39.3667 128.409 39.2233 128.409 39.0464V32.2203C128.409 31.4828 128.195 30.8854 127.767 30.4282C127.354 29.9709 126.779 29.7423 126.042 29.7423C125.289 29.7423 124.677 29.9783 124.205 30.4503C123.748 30.9075 123.519 31.527 123.519 32.3088V39.0464C123.519 39.2233 123.376 39.3667 123.199 39.3667H120.764Z" fill="#747474"/>
<path d="M136.162 39.1012C136.885 39.3815 137.8 39.5216 138.906 39.5216H140.311C140.488 39.5216 140.632 39.3782 140.632 39.2013V37.209C140.632 37.0321 140.488 36.8887 140.311 36.8887H138.751C138.161 36.8887 137.704 36.7338 137.379 36.4241C137.07 36.0996 136.915 35.6423 136.915 35.0523L136.926 29.6095H140.311C140.488 29.6095 140.632 29.4661 140.632 29.2892V27.6731C140.632 27.4962 140.488 27.3528 140.311 27.3528H136.93L136.936 24.2886C136.937 24.1114 136.793 23.9676 136.616 23.9676H134.38C134.204 23.9676 134.06 24.1106 134.06 24.2873L134.054 27.3528H132.456C132.279 27.3528 132.136 27.4962 132.136 27.6731V29.2892C132.136 29.4661 132.279 29.6095 132.456 29.6095H134.049L134.038 34.8532C134.038 36.0185 134.215 36.9477 134.569 37.641C134.923 38.3195 135.454 38.8062 136.162 39.1012Z" fill="#747474"/>
</svg>
